<svg width="755" height="755" viewBox="0 0 755 755" fill="none" xmlns="http://www.w3.org/2000/svg">
<path d="M390.395 21.0171C390.395 16.5047 387.007 13 381.352 13H314.103C307.89 13 301.671 17.506 300.541 23.0197L183 515.983C183 520.489 185.824 524 191.479 524H387.007C393.219 524 399.439 519.488 400.568 513.98L413 464.382V462.38C413 457.867 409.604 454.363 403.957 454.363H286.98L390.395 21.0171Z" fill="#F05252"/>
<path d="M451.148 626.298C461.826 626.298 492.078 625.705 500.977 584.775C545.465 375.37 546.064 371.22 546.064 367.064C546.064 339.777 521.742 339.184 512.249 339.184H460.047L489.113 204.529H576.315C582.838 204.529 589.366 199.187 590.552 192.664L601.823 137.493C601.823 132.156 598.265 128 592.33 128H451.741C441.062 128 410.81 128.598 401.911 168.935C356.83 382.491 356.232 386.642 356.232 390.793C356.232 418.079 380.554 418.677 390.046 418.677H442.248L415.554 542.654H334.287C327.759 542.654 321.829 547.996 320.05 554.518C307.593 615.62 307 616.806 307 617.399C307 622.741 311.744 626.298 317.08 626.298H451.148Z" fill="#1C64F2"/>
<mask id="mask0_7_2" style="mask-type:luminance" maskUnits="userSpaceOnUse" x="582" y="110" width="95" height="109">
<path d="M582 110H676.625V218.299H582V110Z" fill="white"/>
</mask>
<g mask="url(#mask0_7_2)">
<mask id="mask1_7_2" style="mask-type:luminance" maskUnits="userSpaceOnUse" x="582" y="110" width="95" height="109">
<path d="M676.625 164.069L582 218.138V110L676.625 164.069Z" fill="white"/>
</mask>
<g mask="url(#mask1_7_2)">
<path d="M676.625 110V218.299H582V110H676.625Z" fill="#1C64F2"/>
</g>
</g>
</svg>
