<svg width="411" height="151" viewBox="0 0 411 151" fill="none" xmlns="http://www.w3.org/2000/svg">
<rect width="357" height="55" transform="translate(27 48)" fill="white"/>
<path d="M41.3645 38.9098C41.3645 37.9098 40.6979 37.1338 39.5885 37.1338H26.3541C25.1302 37.1338 23.9062 38.1338 23.6823 39.3577L0.557251 148.774C0.557251 149.78 1.10933 150.556 2.22392 150.556H40.6979C41.9218 150.556 43.1458 149.556 43.3698 148.332L45.8125 137.321V136.879C45.8125 135.879 45.1458 135.097 44.0364 135.097H21.0156L41.3645 38.9098Z" fill="#F05252"/>
<path d="M45.0299 39.3577C27.0195 123.644 27.0195 124.535 27.0195 125.202C27.0195 130.54 31.6862 130.54 33.4674 130.54H64.2695C65.4935 130.54 66.6029 129.54 66.9414 128.316C85.6185 39.3577 85.7331 39.2432 85.7331 39.0244C85.7331 38.0192 84.9518 37.3525 83.9518 37.3525H70.7174C69.4987 37.3525 68.2747 38.3577 67.9414 39.5765L51.707 116.196H46.3685L62.7122 38.9098C62.7122 37.9098 62.0456 37.1338 60.9362 37.1338H47.7018C46.4779 37.1338 45.2539 38.1338 45.0299 39.3577Z" fill="#F05252"/>
<path d="M88.2858 44.915C71.4941 123.644 71.4941 124.535 71.4941 125.202C71.4941 130.54 76.1608 130.54 77.9421 130.54H107.635C108.854 130.54 109.968 129.54 110.301 128.316L112.301 118.42V117.972C112.301 116.972 111.635 116.196 110.525 116.196H90.8431L104.63 51.4775H123.202C124.426 51.4775 125.645 50.4775 125.869 49.2536L128.093 38.9098C128.093 37.9098 127.426 37.1338 126.312 37.1338H97.7337C95.7337 37.1338 89.9525 37.1338 88.2858 44.915Z" fill="#F05252"/>
<path d="M139.208 37.1338C137.208 37.1338 131.536 37.2432 129.87 44.915C112.187 128.54 112.078 128.759 112.078 128.873C112.078 129.873 112.963 130.54 113.969 130.54H127.198C128.422 130.54 129.536 129.54 129.87 128.316L136.318 97.6234H141.656C135.203 128.54 135.094 128.759 135.094 128.873C135.094 129.873 135.984 130.54 136.984 130.54H150.219C151.443 130.54 152.552 129.54 152.885 128.316C171.01 43.915 171.125 43.139 171.125 42.3577C171.125 37.2432 166.562 37.1338 164.786 37.1338H139.208ZM146.213 51.4775H151.552L144.771 83.389H139.432L146.213 51.4775Z" fill="#F05252"/>
<path d="M198.874 133.077C201.712 133.077 209.764 132.921 212.129 122.03C223.967 66.3164 224.124 65.2122 224.124 64.1028C224.124 56.8424 217.655 56.6862 215.129 56.6862H201.238L208.973 20.858H232.176C233.91 20.858 235.644 19.4414 235.962 17.7018L238.962 3.0247C238.962 1.60282 238.014 0.498657 236.436 0.498657H199.03C196.191 0.498657 188.139 0.654907 185.775 11.3893C173.775 68.207 173.618 69.3112 173.618 70.4205C173.618 77.681 180.092 77.8372 182.613 77.8372H196.504L189.405 110.822H167.78C166.046 110.822 164.467 112.243 163.993 113.978C160.676 130.238 160.519 130.551 160.519 130.707C160.519 132.129 161.78 133.077 163.202 133.077H198.874Z" fill="#1C64F2"/>
<path d="M218.427 24.3593C217.203 24.3593 215.979 25.3646 215.761 26.5833L213.646 36.4791C213.646 37.8125 214.313 38.7031 215.427 38.7031H237.552C217.427 133.542 217.313 133.76 217.313 133.875C217.313 134.875 218.203 135.542 219.203 135.542H232.323C233.547 135.542 234.656 134.542 234.995 133.318L255.115 38.7031H277.24C278.464 38.7031 279.688 37.7031 279.912 36.4791L282.021 26.1406C282.021 25.1406 281.354 24.3593 280.245 24.3593H218.427Z" fill="#1C64F2"/>
<path d="M256.449 48.9323C239.663 127.651 239.663 128.536 239.663 129.203C239.663 134.432 244.22 134.542 245.996 134.542H271.459C273.459 134.542 279.131 134.432 280.798 126.76C297.475 47.9323 297.584 47.1562 297.584 46.375C297.584 41.2604 293.027 41.151 291.246 41.151H265.678C263.564 41.151 258.116 41.375 256.449 48.9323ZM264.34 120.198H259.006L272.793 55.4948H278.126L264.34 120.198Z" fill="#1C64F2"/>
<path d="M335.162 80.177C342.053 47.9323 342.162 47.1562 342.162 46.375C342.162 41.2604 337.605 41.151 335.829 41.151H304.808C303.584 41.151 302.36 42.151 302.141 43.375C283.24 132.542 283.126 132.76 283.126 132.875C283.126 133.875 284.016 134.542 285.016 134.542H298.251C299.47 134.542 300.584 133.542 300.918 132.318L308.808 94.9635H314.147C306.256 132.542 306.141 132.76 306.141 132.875C306.141 133.875 307.032 134.542 308.032 134.542H321.261C322.485 134.542 323.6 133.542 323.933 132.318C331.824 95.2968 331.938 94.5156 331.938 93.7395C331.938 88.5156 327.376 88.5156 325.6 88.5156L325.824 87.9583C327.824 87.9583 333.605 87.9583 335.162 80.177ZM317.261 55.4948H322.595L317.147 80.7291H311.813L317.261 55.4948Z" fill="#1C64F2"/>
<path d="M346.721 43.375C327.82 132.542 327.705 132.76 327.705 132.875C327.705 133.875 328.596 134.542 329.596 134.542H362.065C363.284 134.542 364.398 133.542 364.731 132.318L366.731 122.422V121.979C366.731 120.979 366.065 120.198 364.955 120.198H348.054L353.612 93.8489H365.065C366.289 93.8489 367.513 92.8489 367.846 91.625C370.065 80.5104 370.179 80.3958 370.179 80.177C370.179 79.1718 369.398 78.5052 368.398 78.5052H356.95L361.841 55.4948H378.742C379.961 55.4948 381.185 54.4895 381.409 53.2708L383.633 42.927C383.633 41.927 382.966 41.151 381.851 41.151H349.388C348.164 41.151 346.94 42.151 346.721 43.375Z" fill="#1C64F2"/>
<mask id="mask0_5_109" style="mask-type:luminance" maskUnits="userSpaceOnUse" x="213" y="23" width="181" height="17">
<path d="M213.646 23.4219H393.703V39.2969H213.646V23.4219Z" fill="white"/>
</mask>
<g mask="url(#mask0_5_109)">
<path d="M213.646 23.4219H393.693V39.2969H213.646V23.4219Z" fill="#1C64F2"/>
</g>
<mask id="mask1_5_109" style="mask-type:luminance" maskUnits="userSpaceOnUse" x="385" y="16" width="26" height="30">
<path d="M385.031 16.125H410.948V45.7865H385.031V16.125Z" fill="white"/>
</mask>
<g mask="url(#mask1_5_109)">
<mask id="mask2_5_109" style="mask-type:luminance" maskUnits="userSpaceOnUse" x="385" y="16" width="26" height="30">
<path d="M410.948 30.9323L385.031 45.7448V16.125L410.948 30.9323Z" fill="white"/>
</mask>
<g mask="url(#mask2_5_109)">
<path d="M410.948 16.125V45.7865H385.031V16.125H410.948Z" fill="#1C64F2"/>
</g>
</g>
</svg>
