<svg width="944" height="377" viewBox="0 0 944 377" fill="none" xmlns="http://www.w3.org/2000/svg">
<path d="M134.076 228.697C165.95 78.6574 166.251 76.5484 166.251 74.4446C166.251 60.6167 153.925 60.3154 149.115 60.3154H70.6352C67.3262 60.3154 64.0173 63.0218 63.4199 66.3255C12.3003 307.478 11.999 308.08 11.999 308.381C11.999 311.088 14.4041 312.89 17.1105 312.89H52.8958C56.1995 312.89 59.2071 310.184 60.111 306.875L72.1364 249.745H108.519C113.932 249.745 129.567 249.745 134.076 228.697ZM104.311 99.1032H118.742L94.9872 210.958H80.5568L104.311 99.1032Z" fill="#1C64F2"/>
<path d="M267.868 165.853C286.512 78.6574 286.813 76.5484 286.813 74.4446C286.813 60.6167 274.486 60.3154 269.676 60.3154H185.784C182.475 60.3154 179.166 63.0218 178.569 66.3255C127.449 307.478 127.148 308.08 127.148 308.381C127.148 311.088 129.553 312.89 132.259 312.89H168.045C171.348 312.89 174.356 310.184 175.26 306.875L196.61 205.846H211.04C189.69 307.478 189.389 308.08 189.389 308.381C189.389 311.088 191.794 312.89 194.501 312.89H230.286C233.59 312.89 236.597 310.184 237.501 306.875C258.851 206.75 259.152 204.641 259.152 202.537C259.152 188.408 246.82 188.408 242.01 188.408L242.613 186.902C248.025 186.902 263.661 186.902 267.868 165.853ZM219.46 99.1032H233.891L219.159 167.36H204.723L219.46 99.1032Z" fill="#1C64F2"/>
<path d="M295.821 81.3638C250.415 294.247 250.415 296.652 250.415 298.46C250.415 312.589 262.742 312.89 267.557 312.89H336.411C341.824 312.89 357.158 312.589 361.672 291.842C406.771 78.6574 407.072 76.5484 407.072 74.4446C407.072 60.6167 394.746 60.3154 389.935 60.3154H320.775C315.061 60.3154 300.329 60.9128 295.821 81.3638ZM317.17 274.103H302.734L340.021 99.1032H354.451L317.17 274.103Z" fill="#1C64F2"/>
<path d="M483.433 282.824C525.228 86.1739 525.53 82.865 525.53 79.8573C525.53 60.3154 508.689 60.3154 482.83 60.3154H426.605C423.296 60.3154 419.987 63.0218 419.389 66.3255L368.27 306.875C368.27 310.184 369.174 312.89 373.08 312.89H429.311C459.377 312.89 477.116 312.89 483.433 282.824ZM460.281 99.1032H474.711L437.43 274.103H422.994L460.281 99.1032Z" fill="#1C64F2"/>
<path d="M539.349 66.3255C490.634 294.247 490.634 296.652 490.634 298.46C490.634 312.89 503.262 312.89 508.072 312.89H591.367C594.671 312.89 597.678 310.184 598.582 306.875C649.094 66.3255 649.395 66.0294 649.395 65.4269C649.395 62.7205 647.292 60.9128 644.585 60.9128H608.805C605.496 60.9128 602.187 63.6192 601.289 66.9281L557.389 274.103H542.954L587.154 65.1256C587.154 62.4192 585.352 60.3154 582.344 60.3154H546.564C543.255 60.3154 539.946 63.0218 539.349 66.3255Z" fill="#1C64F2"/>
<path d="M611.195 12.2035C607.886 12.2035 604.583 14.9098 603.98 18.2187L598.266 44.9811C598.266 48.5861 600.069 50.9912 603.076 50.9912H662.912C608.489 307.478 608.188 308.08 608.188 308.381C608.188 311.088 610.593 312.89 613.299 312.89H648.783C652.087 312.89 655.095 310.184 655.998 306.875L710.422 50.9912H770.258C773.567 50.9912 776.876 48.2848 777.473 44.9811L783.187 17.0136C783.187 14.3072 781.385 12.2035 778.377 12.2035H611.195Z" fill="#1C64F2"/>
<path d="M714.024 81.3638C668.618 294.247 668.618 296.652 668.618 298.46C668.618 312.589 680.945 312.89 685.76 312.89H754.614C760.027 312.89 775.361 312.589 779.875 291.842C824.975 78.6574 825.276 76.5484 825.276 74.4446C825.276 60.6167 812.949 60.3154 808.139 60.3154H738.979C733.265 60.3154 718.533 60.9128 714.024 81.3638ZM735.374 274.103H720.938L758.224 99.1032H772.655L735.374 274.103Z" fill="#1C64F2"/>
<path d="M859.239 312.89C864.651 312.89 879.986 312.589 884.5 291.842C907.049 185.702 907.351 183.598 907.351 181.489C907.351 167.661 895.024 167.36 890.209 167.36H863.748L878.485 99.1032H922.685C925.994 99.1032 929.298 96.3968 929.9 93.0879L935.614 65.1256C935.614 62.4192 933.812 60.3154 930.804 60.3154H859.54C854.127 60.3154 838.793 60.6167 834.284 81.0625C811.433 189.307 811.132 191.416 811.132 193.519C811.132 207.347 823.459 207.649 828.269 207.649H854.73L841.198 270.492H800.005C796.696 270.492 793.689 273.199 792.79 276.508C786.473 307.478 786.172 308.08 786.172 308.381C786.172 311.088 788.577 312.89 791.284 312.89H859.239Z" fill="#1C64F2"/>
</svg>
